{"glyphs":{" ":{"ha":69,"x_min":0,"x_max":0,"o":""},"A":{"ha":1150,"x_min":69,"x_max":1081,"o":"m 92 449 l 92 217 l 1001 217 l 631 388 l 651 249 l 92 449 m 69 478 l 632 278 l 611 417 l 1081 200 l 69 200 l 69 478 z "},"B":{"ha":1150,"x_min":69,"x_max":1081,"o":"m 1058 449 l 499 249 l 519 388 l 149 217 l 1058 217 l 1058 449 m 1081 478 l 1081 200 l 69 200 l 539 417 l 518 278 l 1081 478 z "},"C":{"ha":1072,"x_min":69,"x_max":1003,"o":"m 167 436 l 222 333 l 167 236 l 667 333 l 167 436 m 69 500 l 728 361 l 693 500 l 1003 333 l 693 167 l 728 306 l 69 167 l 158 333 l 69 500 z "},"D":{"ha":918,"x_min":69,"x_max":849,"o":"m 329 664 l 296 553 l 188 524 l 610 238 l 329 664 m 306 778 l 674 214 l 747 338 l 849 0 l 511 101 l 633 175 l 69 543 l 251 597 l 306 778 z "},"E":{"ha":472,"x_min":69,"x_max":403,"o":"m 338 663 l 236 607 l 139 664 l 235 163 l 338 663 m 401 760 l 264 101 l 403 136 l 236 -174 l 69 136 l 207 101 l 69 761 l 236 671 l 401 760 z "},"F":{"ha":917,"x_min":69,"x_max":847,"o":"m 733 476 l 622 510 l 593 618 l 307 196 l 733 476 m 847 500 l 285 132 l 407 58 l 69 -43 l 171 294 l 244 172 l 613 736 l 667 554 l 847 500 z "},"G":{"ha":1074,"x_min":69,"x_max":1004,"o":"m 906 215 l 850 317 l 907 414 l 406 318 l 906 215 m 1003 151 l 344 289 l 379 150 l 69 317 l 379 483 l 344 346 l 1004 483 l 914 317 l 1003 151 z "},"H":{"ha":918,"x_min":69,"x_max":849,"o":"m 589 31 l 622 142 l 731 171 l 308 457 l 589 31 m 613 -83 l 244 479 l 171 357 l 69 694 l 407 593 l 285 519 l 849 151 l 667 97 l 613 -83 z "},"I":{"ha":472,"x_min":69,"x_max":403,"o":"m 135 32 l 236 88 l 333 31 l 238 532 l 135 32 m 71 -65 l 208 593 l 69 558 l 236 868 l 403 558 l 265 593 l 403 -67 l 236 24 l 71 -65 z "},"J":{"ha":917,"x_min":69,"x_max":847,"o":"m 183 218 l 294 185 l 324 76 l 610 499 l 183 218 m 69 194 l 632 563 l 510 636 l 847 738 l 746 400 l 672 522 l 304 -42 l 250 140 l 69 194 z "},"K":{"ha":892,"x_min":69,"x_max":822,"o":"m 97 389 l 697 389 l 628 486 q 664 533 635 532 q 671 533 664 533 q 697 528 685 533 l 822 347 l 697 167 q 668 163 681 163 q 628 208 636 163 l 697 306 l 97 306 q 77 323 85 311 q 69 344 69 335 q 69 347 69 346 q 69 350 69 349 q 97 389 69 374 z "},"L":{"ha":724,"x_min":69,"x_max":654,"o":"m 131 622 l 556 199 l 575 315 q 613 332 597 332 q 633 324 625 332 q 654 296 646 315 l 614 81 l 399 40 q 363 83 363 61 q 379 119 363 97 l 496 139 l 72 564 q 69 581 69 572 q 82 613 69 603 q 111 625 92 625 q 131 622 121 625 z "},"M":{"ha":510,"x_min":69,"x_max":440,"o":"m 296 694 l 296 94 l 393 164 q 440 128 439 157 q 440 121 440 124 q 435 94 440 108 l 254 -31 l 74 94 q 69 124 69 111 q 115 164 69 157 l 213 94 l 213 694 q 229 715 218 707 q 250 722 240 722 q 254 722 253 722 q 258 722 257 722 q 296 694 281 722 z "},"N":{"ha":724,"x_min":69,"x_max":654,"o":"m 651 564 l 228 139 l 344 119 q 361 82 361 97 q 353 61 361 69 q 325 40 344 49 l 110 81 l 69 296 q 113 332 90 332 q 149 315 126 332 l 168 199 l 593 622 q 610 625 601 625 q 642 613 632 625 q 654 583 654 603 q 651 564 654 574 z "},"O":{"ha":892,"x_min":69,"x_max":822,"o":"m 794 306 l 194 306 l 264 208 q 228 161 257 163 q 221 161 228 161 q 194 167 207 161 l 69 347 l 194 528 q 224 532 211 532 q 264 486 256 532 l 194 389 l 794 389 q 815 372 807 383 q 822 351 822 361 q 822 347 822 349 q 822 343 822 344 q 794 306 822 321 z "},"P":{"ha":724,"x_min":69,"x_max":654,"o":"m 593 72 l 168 496 l 149 379 q 111 363 126 363 q 90 371 99 363 q 69 399 78 379 l 110 614 l 325 654 q 361 611 361 633 q 344 575 361 597 l 228 556 l 651 131 q 654 114 654 122 q 642 82 654 92 q 613 69 632 69 q 593 72 603 69 z "},"Q":{"ha":510,"x_min":69,"x_max":440,"o":"m 214 0 l 214 600 l 117 531 q 69 567 71 538 q 69 574 69 571 q 75 600 69 586 l 256 725 l 436 600 q 440 571 440 583 q 394 531 440 538 l 297 600 l 297 0 q 281 -20 292 -12 q 260 -28 269 -28 q 256 -28 257 -28 q 251 -28 253 -28 q 214 0 229 -28 z "},"R":{"ha":724,"x_min":69,"x_max":654,"o":"m 72 131 l 496 556 l 379 575 q 363 613 363 597 q 371 633 363 625 q 399 654 379 646 l 614 614 l 654 399 q 611 363 633 363 q 575 379 597 363 l 556 496 l 131 72 q 114 69 122 69 q 82 82 92 69 q 69 111 69 92 q 72 131 69 121 z "},"S":{"ha":1465,"x_min":69,"x_max":1396,"o":"m 1122 369 q 1217 340 1163 369 q 1301 286 1272 310 q 1396 208 1331 263 q 1324 153 1376 194 q 1249 95 1272 111 q 1190 62 1226 79 q 1122 44 1153 44 q 1083 68 1083 44 q 1100 126 1083 79 q 1118 204 1117 172 q 801 138 985 188 q 462 46 617 88 q 218 3 307 4 q 108 100 146 44 q 69 215 69 156 q 108 328 69 275 q 218 417 146 382 q 445 371 294 413 q 783 281 596 329 q 1118 218 969 233 q 1099 292 1115 249 q 1083 346 1083 336 q 1122 369 1083 369 z "},"T":{"ha":1050,"x_min":69,"x_max":981,"o":"m 83 426 q 69 522 69 476 q 126 678 69 619 q 275 738 183 738 q 376 719 324 738 q 376 706 376 713 q 398 594 376 656 q 450 477 419 532 q 539 341 481 422 q 642 203 597 260 q 768 47 688 146 q 806 106 786 68 q 842 168 826 144 q 874 192 857 192 q 903 175 886 192 q 926 143 915 163 q 944 96 936 124 q 956 46 951 68 q 965 -14 961 24 q 972 -71 969 -51 q 976 -130 974 -90 q 981 -181 979 -169 q 882 -169 949 -176 q 775 -158 815 -162 q 690 -139 735 -153 q 624 -104 644 -125 q 608 -75 608 -89 q 633 -41 608 -57 q 697 -4 657 -25 q 757 36 736 17 q 475 224 643 126 q 194 374 307 321 l 83 426 z "},"U":{"ha":554,"x_min":69,"x_max":485,"o":"m 69 715 q 167 826 111 788 q 283 864 224 864 q 397 826 343 864 q 485 715 450 788 q 404 603 438 674 q 349 421 371 532 q 315 217 326 310 q 286 -36 303 124 q 369 -18 317 -35 q 439 -1 422 -1 q 472 -42 472 -1 q 466 -81 472 -60 q 445 -126 460 -101 q 418 -170 431 -150 q 383 -219 406 -190 q 347 -264 360 -249 q 308 -310 335 -279 q 275 -349 282 -340 q 213 -271 256 -322 q 146 -187 171 -219 q 99 -113 121 -154 q 76 -42 76 -72 q 111 -1 76 -1 q 185 -18 129 -1 q 271 -36 240 -35 q 255 119 264 19 q 240 270 246 218 q 221 399 235 322 q 190 524 207 476 q 142 624 172 572 q 69 715 111 676 z "},"V":{"ha":1057,"x_min":69,"x_max":988,"o":"m 288 81 l 299 69 q 690 364 540 268 q 956 460 839 460 l 969 460 q 988 563 988 513 q 928 711 988 654 q 772 768 869 768 q 676 754 724 768 l 676 740 q 658 613 676 675 q 593 477 640 551 q 514 359 546 403 q 401 219 482 315 q 288 81 319 122 m 299 69 q 358 31 319 50 q 419 -5 396 11 q 443 -37 443 -21 q 426 -67 443 -50 q 380 -97 408 -85 q 304 -118 351 -110 q 230 -130 257 -126 q 141 -138 203 -133 q 69 -144 79 -143 q 81 -45 74 -112 q 92 63 88 22 q 111 147 97 103 q 146 214 125 192 q 176 229 161 229 q 210 205 194 229 q 247 141 226 181 q 288 81 268 101 q 299 69 286 81 z "},"W":{"ha":1351,"x_min":69,"x_max":1282,"o":"m 1135 547 q 1244 450 1207 506 q 1282 335 1282 394 q 1244 219 1282 274 q 1133 131 1206 165 q 1021 211 1092 178 q 840 267 950 244 q 635 301 731 289 q 383 329 539 314 q 401 245 385 299 q 417 175 417 192 q 378 143 417 143 q 323 155 353 143 q 255 193 293 167 q 193 238 217 219 q 125 294 169 257 q 69 340 81 331 q 147 403 94 360 q 232 470 200 446 q 306 517 264 494 q 378 540 347 539 q 418 504 418 539 q 401 431 418 486 q 383 346 385 376 q 517 359 435 351 q 647 372 599 367 q 763 386 696 376 q 876 408 831 396 q 971 439 921 421 q 1061 484 1021 457 q 1135 547 1101 511 z "},"X":{"ha":1053,"x_min":69,"x_max":983,"o":"m 969 185 q 983 90 983 135 q 926 -68 983 -8 q 775 -128 868 -128 q 674 -110 726 -128 q 674 -94 674 -101 q 646 41 674 -32 q 557 204 618 114 q 438 370 496 294 q 283 561 379 446 q 244 502 264 540 q 208 441 224 464 q 178 418 193 418 q 149 433 164 418 q 118 482 131 451 q 97 556 106 513 q 85 632 89 600 q 76 719 81 664 q 69 792 71 774 q 169 781 100 788 q 277 769 238 774 q 362 749 317 764 q 429 714 407 735 q 444 683 444 697 q 420 650 444 667 q 357 613 396 633 q 297 574 318 592 q 414 476 336 540 q 530 382 492 413 q 632 306 568 351 q 741 239 696 260 q 843 201 786 218 q 956 185 900 185 q 969 185 963 185 z "},"Y":{"ha":557,"x_min":69,"x_max":488,"o":"m 488 -82 q 390 -192 446 -154 q 274 -229 333 -229 q 158 -191 213 -229 q 69 -81 104 -153 q 199 176 158 -3 q 268 669 239 354 q 184 651 238 668 q 114 635 131 635 q 82 674 82 635 q 94 730 82 699 q 132 797 107 761 q 178 860 157 833 q 233 927 199 886 q 279 983 267 968 q 342 906 296 961 q 410 820 388 850 q 456 747 433 790 q 479 674 478 704 q 444 633 478 633 q 372 650 426 633 q 286 668 317 667 q 299 535 292 619 q 312 404 307 451 q 326 289 317 357 q 348 176 336 221 q 378 81 360 132 q 424 -9 397 31 q 488 -82 451 -49 z "},"Z":{"ha":1057,"x_min":69,"x_max":988,"o":"m 382 -79 q 288 -93 333 -93 q 129 -35 189 -93 q 69 117 69 24 q 88 218 69 165 q 104 218 96 218 q 239 246 167 218 q 401 334 311 274 q 568 453 492 394 q 758 607 644 513 q 699 647 738 626 q 638 682 661 667 q 614 714 614 697 q 629 742 614 726 q 700 779 651 764 q 786 800 749 794 q 897 813 824 806 q 988 822 969 819 q 978 722 985 794 q 965 613 971 650 q 945 530 960 576 q 910 461 931 483 q 881 446 894 446 q 847 470 863 446 q 810 533 831 494 q 769 593 789 572 q 687 492 739 556 q 605 393 635 429 q 534 303 575 357 q 470 210 493 250 q 424 123 447 171 q 392 28 401 75 q 382 -65 382 -18 q 382 -79 382 -72 z "},"a":{"ha":1078,"x_min":69,"x_max":1008,"o":"m 69 464 l 631 264 l 631 403 l 1008 208 l 69 208 l 69 464 z "},"b":{"ha":1078,"x_min":69,"x_max":1008,"o":"m 1008 464 l 1008 208 l 69 208 l 447 403 l 447 264 l 1008 464 z "},"c":{"ha":1072,"x_min":69,"x_max":1003,"o":"m 69 500 l 728 361 l 693 500 l 1003 333 l 693 167 l 728 306 l 69 167 l 158 333 l 69 500 z "},"d":{"ha":917,"x_min":69,"x_max":847,"o":"m 304 768 l 672 204 l 746 328 l 847 -10 l 510 92 l 632 165 l 69 533 l 250 588 l 304 768 z "},"e":{"ha":472,"x_min":69,"x_max":403,"o":"m 403 764 l 264 104 l 403 140 l 236 -171 l 69 140 l 208 106 l 71 764 l 236 674 l 403 764 z "},"f":{"ha":917,"x_min":69,"x_max":847,"o":"m 847 515 l 283 147 l 407 74 l 69 -28 l 171 310 l 244 188 l 613 750 l 667 569 l 847 515 z "},"g":{"ha":1074,"x_min":69,"x_max":1004,"o":"m 1004 168 l 344 307 l 381 168 l 69 335 l 381 501 l 346 363 l 1004 500 l 914 335 l 1004 168 z "},"h":{"ha":917,"x_min":69,"x_max":847,"o":"m 613 -74 l 244 490 l 171 367 l 69 704 l 407 603 l 285 529 l 847 161 l 667 107 l 613 -74 z "},"i":{"ha":472,"x_min":69,"x_max":403,"o":"m 69 -69 l 208 590 l 69 554 l 236 865 l 403 554 l 264 589 l 401 -69 l 236 21 l 69 -69 z "},"j":{"ha":917,"x_min":69,"x_max":847,"o":"m 69 179 l 633 547 l 510 621 l 847 722 l 746 385 l 672 507 l 304 -56 l 250 125 l 69 179 z "},"k":{"ha":982,"x_min":69,"x_max":913,"o":"m 69 417 l 669 417 l 669 556 l 913 347 l 669 139 l 669 278 l 69 278 l 69 417 z "},"l":{"ha":846,"x_min":69,"x_max":776,"o":"m 168 707 l 654 221 l 753 319 l 776 0 l 457 24 l 556 122 l 69 608 l 168 707 z "},"m":{"ha":558,"x_min":69,"x_max":489,"o":"m 349 810 l 349 122 l 489 122 l 279 -121 l 69 122 l 210 122 l 210 810 l 349 810 z "},"n":{"ha":846,"x_min":69,"x_max":776,"o":"m 776 608 l 290 122 l 389 24 l 69 0 l 93 319 l 192 221 l 678 707 l 776 608 z "},"o":{"ha":1069,"x_min":69,"x_max":1000,"o":"m 1000 278 l 313 278 l 313 138 l 69 347 l 313 557 l 313 417 l 1000 417 l 1000 278 z "},"p":{"ha":846,"x_min":69,"x_max":776,"o":"m 678 -12 l 192 474 l 93 375 l 69 694 l 389 671 l 290 572 l 776 86 l 678 -12 z "},"q":{"ha":558,"x_min":69,"x_max":489,"o":"m 210 -115 l 210 572 l 69 572 l 279 815 l 489 572 l 349 572 l 349 -115 l 210 -115 z "},"r":{"ha":846,"x_min":69,"x_max":776,"o":"m 69 86 l 556 572 l 457 671 l 776 694 l 753 375 l 654 474 l 168 -12 l 69 86 z "},"s":{"ha":1074,"x_min":69,"x_max":1004,"o":"m 69 500 q 407 403 197 444 q 729 361 617 361 q 729 378 729 369 q 694 500 729 444 q 1004 333 838 379 q 847 274 931 318 q 694 167 764 229 q 729 306 729 226 q 410 269 600 306 q 69 167 219 232 l 158 333 l 69 500 z "},"t":{"ha":918,"x_min":69,"x_max":849,"o":"m 306 778 q 476 471 358 649 q 674 214 594 293 q 747 336 732 263 q 849 0 764 147 q 695 69 786 42 q 513 100 604 96 q 635 174 579 118 q 383 374 543 265 q 69 543 224 482 l 251 597 l 306 778 z "},"u":{"ha":472,"x_min":69,"x_max":403,"o":"m 403 814 q 306 476 347 686 q 264 154 264 267 q 281 154 272 154 q 403 189 347 154 q 236 -121 282 46 q 176 37 221 -47 q 69 188 132 121 q 208 154 129 154 q 172 474 208 283 q 69 815 135 664 l 236 725 l 403 814 z "},"v":{"ha":917,"x_min":69,"x_max":847,"o":"m 847 543 q 540 372 718 490 q 283 175 363 254 q 406 101 332 117 q 69 0 217 85 q 138 153 111 63 q 169 336 165 244 q 243 214 188 269 q 443 465 335 306 q 613 779 551 625 l 667 597 l 847 543 z "},"w":{"ha":1075,"x_min":69,"x_max":1006,"o":"m 1004 194 q 667 292 876 250 q 344 333 457 333 q 344 317 344 325 q 379 194 344 250 q 69 361 236 315 q 227 421 143 376 q 378 528 311 465 q 344 389 344 468 q 664 426 474 389 q 1006 528 854 463 l 915 361 l 1004 194 z "},"x":{"ha":918,"x_min":69,"x_max":849,"o":"m 613 -83 q 442 224 560 46 q 244 481 324 401 q 171 358 186 432 q 69 694 154 547 q 223 626 132 653 q 406 594 314 599 q 283 521 339 576 q 535 321 375 429 q 849 151 694 213 l 667 97 l 613 -83 z "},"y":{"ha":472,"x_min":69,"x_max":403,"o":"m 69 -119 q 167 218 125 8 q 208 540 208 428 q 192 540 200 540 q 69 506 125 540 q 236 815 190 649 q 296 658 251 742 q 403 507 340 574 q 264 540 343 540 q 301 221 264 411 q 403 -121 338 31 l 236 -31 l 69 -119 z "},"z":{"ha":917,"x_min":69,"x_max":847,"o":"m 69 151 q 376 322 199 204 q 633 519 554 440 q 511 593 585 578 q 847 694 700 610 q 778 541 806 632 q 747 358 751 450 q 674 481 729 425 q 474 229 582 389 q 304 -85 365 69 l 250 97 l 69 151 z "}}}
